<svg width="232" height="270" viewBox="0 0 232 270" fill="none" xmlns="http://www.w3.org/2000/svg">
<path d="M126.061 269.936C105.294 269.936 84.9929 263.777 67.7257 252.24C50.4586 240.702 37.0004 224.304 29.0532 205.117C21.106 185.931 19.0267 164.819 23.0781 144.451C27.1296 124.083 37.1299 105.374 51.8144 90.6894C66.4989 76.0049 85.2081 66.0046 105.576 61.9531C125.944 57.9017 147.056 59.981 166.242 67.9282C185.429 75.8754 201.827 89.3336 213.365 106.601C224.902 123.868 231.061 144.169 231.061 164.936C231.029 192.774 219.957 219.462 200.272 239.147C180.588 258.831 153.899 269.904 126.061 269.936ZM126.061 61.9356C105.689 61.9356 85.7751 67.9764 68.8369 79.2942C51.8986 90.612 38.6968 106.698 30.901 125.519C23.1052 144.34 21.0654 165.05 25.0397 185.03C29.014 205.01 38.8238 223.363 53.2286 237.768C67.6334 252.172 85.9863 261.982 105.966 265.956C125.946 269.931 146.656 267.891 165.477 260.095C184.298 252.299 200.384 239.098 211.702 222.159C223.02 205.221 229.061 185.307 229.061 164.936C229.03 137.628 218.168 111.447 198.859 92.1377C179.549 72.8281 153.368 61.9665 126.061 61.9356Z" fill="#3F3D56"/>
<path d="M164.625 134.434C173.618 126.835 179.08 114.831 177.648 103.146C176.215 91.46 167.343 80.7173 155.834 78.2358C144.326 75.7544 131.207 82.6235 127.711 93.8657C125.787 72.1912 123.571 49.6086 112.047 31.1507C101.613 14.4376 83.5405 2.47871 63.9541 0.339243C44.3677 -1.80023 23.7458 6.28024 11.5305 21.7395C-0.684837 37.1988 -3.67573 59.6734 4.87956 77.4219C11.1819 90.4967 22.7931 100.227 34.9588 108.143C73.7714 133.398 121.918 141.931 167.731 135.189L164.625 134.434Z" fill="#E6E6E6"/>
<path d="M30.899 6.72808C47.0601 19.8916 61.8863 34.6139 75.1631 50.6822C95.9411 75.7429 112.755 103.841 125.019 133.996C125.917 136.196 122.344 137.154 121.456 134.978C101.391 85.969 69.3575 42.7728 28.2867 9.3403C26.4424 7.8385 29.0699 5.23867 30.899 6.72808Z" fill="white"/>
<path d="M181.654 148.609H167.91V107.995C167.911 106.802 168.386 105.658 169.229 104.814C170.073 103.97 171.217 103.496 172.41 103.495H177.154C178.347 103.496 179.491 103.97 180.334 104.814C181.178 105.658 181.652 106.802 181.654 107.995V148.609Z" fill="#3F3D56"/>
<path d="M189.986 217.722H58.607L58.1353 143.675C58.1304 142.532 58.3552 141.398 58.7965 140.343C59.2378 139.288 59.8865 138.332 60.7042 137.532L93.7078 105.386C95.2736 103.856 97.3715 102.992 99.5608 102.975L154.799 102.47C156.051 102.463 157.29 102.73 158.428 103.254C159.566 103.777 160.575 104.544 161.383 105.501L161.388 105.507L187.624 137.682C189.15 139.557 189.984 141.9 189.986 144.317L189.986 217.722Z" fill="#3F3D56"/>
<path d="M189.986 217.722H119.384V151.361C119.384 149.339 120.105 147.383 121.417 145.845L152.093 109.88V109.881C152.89 108.944 153.881 108.193 154.998 107.677C156.114 107.162 157.33 106.895 158.559 106.896H158.592C159.827 106.9 161.046 107.173 162.165 107.697C163.284 108.221 164.274 108.983 165.068 109.929L187.995 137.223C189.28 138.755 189.985 140.691 189.986 142.69V217.722Z" fill="#6C63FF"/>
<path d="M160.038 192.233H149.823C149.16 192.233 148.525 191.969 148.056 191.5C147.587 191.032 147.324 190.396 147.323 189.733V181.169C147.324 180.506 147.587 179.871 148.056 179.402C148.525 178.933 149.16 178.67 149.823 178.669H160.038C160.7 178.67 161.336 178.933 161.805 179.402C162.273 179.871 162.537 180.506 162.538 181.169V189.733C162.537 190.396 162.273 191.032 161.805 191.5C161.336 191.969 160.7 192.233 160.038 192.233Z" fill="white"/>
<path d="M160.038 170.287H149.823C149.16 170.286 148.525 170.023 148.056 169.554C147.587 169.085 147.324 168.45 147.323 167.787V159.422C147.324 158.759 147.587 158.124 148.056 157.655C148.525 157.186 149.16 156.923 149.823 156.922H160.038C160.7 156.923 161.336 157.186 161.805 157.655C162.273 158.124 162.537 158.759 162.538 159.422V167.787C162.537 168.45 162.273 169.085 161.805 169.554C161.336 170.023 160.7 170.286 160.038 170.287Z" fill="white"/>
<path d="M96.8665 188.899H86.6519C85.9891 188.899 85.3536 188.635 84.8849 188.166C84.4163 187.698 84.1526 187.062 84.1519 186.399V177.835C84.1526 177.173 84.4163 176.537 84.8849 176.069C85.3536 175.6 85.9891 175.336 86.6519 175.335H96.8665C97.5293 175.336 98.1647 175.6 98.6334 176.069C99.102 176.537 99.3657 177.173 99.3665 177.835V186.399C99.3657 187.062 99.102 187.698 98.6334 188.166C98.1647 188.635 97.5293 188.899 96.8665 188.899Z" fill="white"/>
<path d="M96.8665 166.953H86.6519C85.9891 166.952 85.3536 166.689 84.8849 166.22C84.4163 165.751 84.1526 165.116 84.1519 164.453V156.088C84.1526 155.426 84.4163 154.79 84.8849 154.321C85.3536 153.853 85.9891 153.589 86.6519 153.588H96.8665C97.5293 153.589 98.1647 153.853 98.6334 154.321C99.102 154.79 99.3657 155.426 99.3665 156.088V164.453C99.3657 165.116 99.102 165.751 98.6334 166.22C98.1647 166.689 97.5293 166.952 96.8665 166.953Z" fill="white"/>
<path d="M215.412 218.588H36.709C36.4438 218.588 36.1894 218.483 36.0019 218.295C35.8143 218.107 35.709 217.853 35.709 217.588C35.709 217.323 35.8143 217.068 36.0019 216.881C36.1894 216.693 36.4438 216.588 36.709 216.588H215.412C215.678 216.588 215.932 216.693 216.119 216.881C216.307 217.068 216.412 217.323 216.412 217.588C216.412 217.853 216.307 218.107 216.119 218.295C215.932 218.483 215.678 218.588 215.412 218.588Z" fill="#3F3D56"/>
</svg>
