<svg width="368" height="225" viewBox="0 0 368 225" fill="none" xmlns="http://www.w3.org/2000/svg">
<g clip-path="url(#clip0)">
<path d="M44.4701 225L43.8386 224.857C50.8801 193.45 68.5759 164.929 93.6663 144.548C112.635 129.164 135.196 118.875 159.225 114.65C183.253 110.425 207.958 112.402 231.014 120.397C254.07 128.392 274.718 142.14 291.013 160.348C307.309 178.556 318.716 200.624 324.161 224.474L323.531 224.618C308.625 158.976 251.266 113.131 184.043 113.131C117.702 113.131 59.0029 160.179 44.4701 225Z" fill="#3F3D56"/>
<path d="M59.2718 220.995C59.8201 223.027 61.698 224.286 61.698 224.286C61.698 224.286 62.687 222.249 62.1387 220.217C61.5905 218.184 59.7125 216.925 59.7125 216.925C59.7125 216.925 58.7235 218.962 59.2718 220.995Z" fill="#3F3D56"/>
<path d="M60.0775 220.558C61.5819 222.027 61.7657 224.285 61.7657 224.285C61.7657 224.285 59.5103 224.161 58.0058 222.692C56.5014 221.223 56.3176 218.965 56.3176 218.965C56.3176 218.965 58.573 219.089 60.0775 220.558Z" fill="#00286B"/>
<path d="M101.024 220.995C101.572 223.027 103.45 224.286 103.45 224.286C103.45 224.286 104.439 222.249 103.891 220.217C103.342 218.184 101.465 216.925 101.465 216.925C101.465 216.925 100.476 218.962 101.024 220.995Z" fill="#3F3D56"/>
<path d="M101.829 220.558C103.334 222.027 103.518 224.285 103.518 224.285C103.518 224.285 101.262 224.161 99.7578 222.692C98.2533 221.223 98.0695 218.965 98.0695 218.965C98.0695 218.965 100.325 219.089 101.829 220.558Z" fill="#00286B"/>
<path d="M109.303 59.0775L102.692 53.7732L139.711 20.623H233.578V49.7952L172.762 90.9016L109.303 59.0775Z" fill="#00286B"/>
<path d="M250.692 39.2184V21.2852H238.229V25.677L233.578 20.623L203.17 53.7732L191.271 61.7293L172.822 196.923L200.646 224.829H265.308V55.0992L250.692 39.2184Z" fill="#CCCCCC"/>
<path d="M203.17 53.7733H102.692V224.829H203.17V53.7733Z" fill="#F2F2F2"/>
<path d="M160.203 183.06H141.694V224.829H160.203V183.06Z" fill="#CCCCCC"/>
<path d="M121.862 194.994V188.363H113.93V194.994H121.201H121.862Z" fill="#47AFFF"/>
<path d="M121.201 200.298H113.93V206.928H121.862V200.298H121.201Z" fill="#47AFFF"/>
<path d="M135.083 188.364H127.151V194.994H135.083V188.364Z" fill="#47AFFF"/>
<path d="M135.083 200.298H127.151V206.928H135.083V200.298Z" fill="#47AFFF"/>
<path d="M176.067 194.994V188.363H168.135V194.994H175.407H176.067Z" fill="#47AFFF"/>
<path d="M175.407 200.298H168.135V206.928H176.067V200.298H175.407Z" fill="#47AFFF"/>
<path d="M189.288 188.364H181.356V194.994H189.288V188.364Z" fill="#47AFFF"/>
<path d="M189.288 200.298H181.356V206.928H189.288V200.298Z" fill="#47AFFF"/>
<path d="M231.595 62.3922V55.7624H223.662V62.3922H230.934H231.595Z" fill="#00286B"/>
<path d="M230.934 67.6965H223.662V74.3263H231.595V67.6965H230.934Z" fill="#00286B"/>
<path d="M244.815 55.7623H236.883V62.3924H244.815V55.7623Z" fill="#00286B"/>
<path d="M244.815 67.6964H236.883V74.3265H244.815V67.6964Z" fill="#00286B"/>
<path d="M231.595 99.5206V92.8905H223.662V99.5206H230.934H231.595Z" fill="#00286B"/>
<path d="M230.934 104.825H223.662V111.455H231.595V104.825H230.934Z" fill="#00286B"/>
<path d="M244.815 92.8907H236.883V99.5207H244.815V92.8907Z" fill="#00286B"/>
<path d="M244.815 104.825H236.883V111.455H244.815V104.825Z" fill="#00286B"/>
<path d="M231.595 136.649V130.019H223.662V136.649H230.934H231.595Z" fill="#00286B"/>
<path d="M230.934 141.953H223.662V148.583H231.595V141.953H230.934Z" fill="#00286B"/>
<path d="M244.815 130.019H236.883V136.649H244.815V130.019Z" fill="#00286B"/>
<path d="M244.815 141.953H236.883V148.583H244.815V141.953Z" fill="#00286B"/>
<path d="M231.595 173.777V167.147H223.662V173.777H230.934H231.595Z" fill="#00286B"/>
<path d="M230.934 179.081H223.662V185.712H231.595V179.081H230.934Z" fill="#00286B"/>
<path d="M244.815 167.147H236.883V173.777H244.815V167.147Z" fill="#00286B"/>
<path d="M244.815 179.081H236.883V185.712H244.815V179.081Z" fill="#00286B"/>
<path d="M190.61 62.3924H113.93V78.3045H190.61V62.3924Z" fill="#00286B"/>
<path d="M190.61 94.2167H113.93V110.129H190.61V94.2167Z" fill="#00286B"/>
<path d="M190.61 126.041H113.93V141.953H190.61V126.041Z" fill="#00286B"/>
<path d="M190.61 157.865H113.93V173.777H190.61V157.865Z" fill="#00286B"/>
<path d="M370.23 224.161H2.23032V224.811H370.23V224.161Z" fill="#3F3D56"/>
<path d="M63.5276 149.201H61.6262V224.531H63.5276V149.201Z" fill="#3F3D56"/>
<path d="M81.0756 158.801C81.1967 185.142 62.7194 206.582 62.7194 206.582C62.7194 206.582 44.0459 185.314 43.9249 158.973C43.8039 132.632 62.2811 111.193 62.2811 111.193C62.2811 111.193 80.9546 132.46 81.0756 158.801Z" fill="#00286B"/>
<path opacity="0.1" d="M81.0756 158.801C81.1967 185.142 62.7194 206.582 62.7194 206.582C62.7194 206.582 44.0459 185.314 43.9249 158.973C43.8039 132.632 62.2811 111.193 62.2811 111.193C62.2811 111.193 80.9546 132.46 81.0756 158.801Z" fill="black"/>
<path d="M38.8092 149.201H36.9077V224.531H38.8092V149.201Z" fill="#3F3D56"/>
<path d="M56.3571 158.801C56.4782 185.142 38.001 206.582 38.001 206.582C38.001 206.582 19.3275 185.314 19.2064 158.973C19.0854 132.632 37.5626 111.193 37.5626 111.193C37.5626 111.193 56.2361 132.46 56.3571 158.801Z" fill="#00286B"/>
<path d="M56.4961 90.6738C41.5182 90.743 29.3268 90.965 29.3268 90.965C29.3268 90.965 43.8182 71.7125 56.4417 78.8454C69.0653 85.9783 83.5665 90.7143 83.5665 90.7143C83.5665 90.7143 71.4739 90.6046 56.4961 90.6738Z" fill="#47AFFF"/>
<path d="M110.871 13.4135C95.8929 13.4827 83.7015 13.7047 83.7015 13.7047C83.7015 13.7047 98.1929 -5.54782 110.816 1.58509C123.44 8.71801 137.941 13.454 137.941 13.454C137.941 13.454 125.849 13.3443 110.871 13.4135Z" fill="#47AFFF"/>
<path d="M266.911 177.773H286.1V173.127H296.687V177.773H316.538V198.347H296.687V224.23H286.1V198.347H266.911L256.985 187.064L266.911 177.773Z" fill="#00286B"/>
</g>
<defs>
<clipPath id="clip0">
<rect width="368" height="225" fill="white"/>
</clipPath>
</defs>
</svg>
