<svg width="314" height="265" viewBox="0 0 314 265" fill="none" xmlns="http://www.w3.org/2000/svg">
<g clip-path="url(#clip0)">
<path d="M241.131 245.837H98.9414C98.0599 245.836 97.2148 245.486 96.5915 244.864C95.9682 244.241 95.6176 243.398 95.6166 242.517V145.563C95.6176 144.683 95.9682 143.839 96.5915 143.217C97.2148 142.594 98.0599 142.244 98.9414 142.243H241.131C242.013 142.244 242.858 142.594 243.481 143.217C244.104 143.839 244.455 144.683 244.456 145.563V242.517C244.455 243.398 244.104 244.241 243.481 244.864C242.858 245.486 242.013 245.836 241.131 245.837Z" fill="white"/>
<path d="M241.131 245.837H98.9414C98.0599 245.836 97.2148 245.486 96.5915 244.864C95.9682 244.241 95.6176 243.398 95.6166 242.517V145.563C95.6176 144.683 95.9682 143.839 96.5915 143.217C97.2148 142.594 98.0599 142.244 98.9414 142.243H241.131C242.013 142.244 242.858 142.594 243.481 143.217C244.104 143.839 244.455 144.683 244.456 145.563V242.517C244.455 243.398 244.104 244.241 243.481 244.864C242.858 245.486 242.013 245.836 241.131 245.837ZM98.9414 142.981C98.2558 142.982 97.5985 143.254 97.1137 143.738C96.6289 144.222 96.3562 144.878 96.3554 145.563V242.517C96.3562 243.202 96.6289 243.858 97.1137 244.342C97.5985 244.827 98.2558 245.099 98.9414 245.1H241.131C241.817 245.099 242.474 244.827 242.959 244.342C243.444 243.858 243.716 243.202 243.717 242.517V145.563C243.716 144.878 243.444 144.222 242.959 143.738C242.474 143.254 241.817 142.982 241.131 142.981H98.9414Z" fill="#3F3D56"/>
<path d="M186.496 245.254H153.577V190.834C153.578 189.544 154.092 188.306 155.006 187.394C155.92 186.481 157.159 185.968 158.452 185.966H181.621C182.913 185.968 184.152 186.481 185.066 187.394C185.98 188.306 186.494 189.544 186.496 190.834V245.254Z" fill="#47AFFF"/>
<path d="M233.376 121.576H214.577V90.2039C214.578 89.3236 214.929 88.4798 215.552 87.8573C216.175 87.2349 217.02 86.8848 217.902 86.8838H230.052C230.933 86.8848 231.778 87.2349 232.402 87.8573C233.025 88.4798 233.375 89.3236 233.376 90.2039V121.576Z" fill="white"/>
<path d="M233.376 121.576H214.577V90.2039C214.578 89.3236 214.929 88.4798 215.552 87.8573C216.175 87.2349 217.02 86.8848 217.902 86.8838H230.052C230.933 86.8848 231.778 87.2349 232.402 87.8573C233.025 88.4798 233.375 89.3236 233.376 90.2039V121.576ZM215.316 120.839H232.638V90.2039C232.637 89.5192 232.364 88.8629 231.879 88.3788C231.395 87.8947 230.737 87.6224 230.052 87.6216H217.902C217.216 87.6224 216.559 87.8947 216.074 88.3788C215.589 88.8629 215.317 89.5192 215.316 90.2039V120.839Z" fill="#3F3D56"/>
<path d="M127.385 134.787C147.379 134.787 163.586 118.603 163.586 98.6381C163.586 78.6737 147.379 62.4893 127.385 62.4893C107.392 62.4893 91.1848 78.6737 91.1848 98.6381C91.1848 118.603 107.392 134.787 127.385 134.787Z" fill="#47AFFF"/>
<path d="M139.673 201.774H111.866C110.757 201.773 109.693 201.332 108.909 200.549C108.125 199.766 107.684 198.704 107.682 197.596V174.705C107.684 173.597 108.125 172.535 108.909 171.752C109.693 170.969 110.757 170.529 111.866 170.527H139.673C140.782 170.529 141.845 170.969 142.63 171.752C143.414 172.535 143.855 173.597 143.856 174.705V197.596C143.855 198.704 143.414 199.766 142.63 200.549C141.845 201.332 140.782 201.773 139.673 201.774Z" fill="#47AFFF"/>
<path d="M228.85 201.774H201.043C199.934 201.773 198.871 201.332 198.086 200.549C197.302 199.766 196.861 198.704 196.86 197.596V174.705C196.861 173.597 197.302 172.535 198.086 171.752C198.871 170.969 199.934 170.529 201.043 170.527H228.85C229.959 170.529 231.022 170.969 231.807 171.752C232.591 172.535 233.032 173.597 233.034 174.705V197.596C233.032 198.704 232.591 199.766 231.807 200.549C231.023 201.332 229.959 201.773 228.85 201.774Z" fill="#47AFFF"/>
<path d="M85.0005 144.237V129.32C85.0005 128.174 85.3039 127.049 85.8798 126.057C86.4557 125.066 87.2838 124.245 88.2801 123.676L171.281 76.3048C172.311 75.7168 173.483 75.4211 174.669 75.4499C175.856 75.4786 177.012 75.8307 178.012 76.4679L252.063 123.631C252.985 124.219 253.744 125.029 254.27 125.987C254.796 126.945 255.072 128.02 255.072 129.112V144.237C255.072 145.961 254.386 147.615 253.165 148.834C251.944 150.053 250.289 150.738 248.562 150.738H91.5104C89.7839 150.738 88.1281 150.053 86.9072 148.834C85.6864 147.615 85.0005 145.961 85.0005 144.237Z" fill="#00286B"/>
<path opacity="0.2" d="M248.562 144.096H91.5104C89.7839 144.096 88.1281 143.411 86.9072 142.192C85.6864 140.973 85.0005 139.32 85.0005 137.596V143.498C85.0005 145.222 85.6864 146.876 86.9072 148.095C88.1281 149.314 89.7839 149.999 91.5104 149.999H248.562C250.289 149.999 251.944 149.314 253.165 148.095C254.386 146.876 255.072 145.222 255.072 143.498V137.596C255.072 139.32 254.386 140.973 253.165 142.192C251.944 143.411 250.289 144.096 248.562 144.096Z" fill="black"/>
<path d="M8.13773 172.382C8.13773 155.555 21.7988 115.624 38.6506 115.624C55.5024 115.624 69.1635 155.555 69.1635 172.382C69.1635 180.463 65.9488 188.213 60.2265 193.927C54.5042 199.642 46.7431 202.852 38.6506 202.852C30.5581 202.852 22.797 199.642 17.0747 193.927C11.3525 188.213 8.13773 180.463 8.13773 172.382Z" fill="#00286B"/>
<path d="M38.6506 246.135C38.5527 246.135 38.4587 246.096 38.3894 246.027C38.3201 245.958 38.2812 245.864 38.2812 245.766V136.359C38.2812 136.261 38.3201 136.168 38.3894 136.098C38.4587 136.029 38.5527 135.99 38.6506 135.99C38.7486 135.99 38.8426 136.029 38.9119 136.098C38.9811 136.168 39.0201 136.261 39.0201 136.359V245.766C39.0201 245.864 38.9811 245.958 38.9119 246.027C38.8426 246.096 38.7486 246.135 38.6506 246.135Z" fill="white"/>
<path d="M38.6506 184.703C38.5783 184.703 38.5076 184.681 38.4472 184.642C38.3868 184.602 38.3395 184.545 38.311 184.479C38.2825 184.413 38.2742 184.339 38.287 184.268C38.2999 184.197 38.3333 184.131 38.3832 184.079L53.8942 167.826C53.9618 167.755 54.0548 167.714 54.1527 167.711C54.2507 167.709 54.3456 167.745 54.4165 167.813C54.4874 167.88 54.5286 167.973 54.531 168.071C54.5333 168.169 54.4967 168.264 54.4291 168.335L38.9181 184.588C38.8836 184.624 38.8421 184.653 38.7961 184.673C38.7501 184.693 38.7006 184.703 38.6506 184.703Z" fill="white"/>
<path d="M38.6505 157.299C38.5583 157.3 38.4693 157.265 38.4013 157.203L24.9967 144.965C24.9244 144.899 24.8813 144.807 24.8769 144.709C24.8726 144.611 24.9072 144.516 24.9734 144.443C25.0395 144.371 25.1316 144.328 25.2295 144.324C25.3274 144.319 25.423 144.354 25.4953 144.42L38.8999 156.658C38.9549 156.709 38.9934 156.774 39.0103 156.847C39.0273 156.919 39.0219 156.995 38.995 157.064C38.968 157.133 38.9207 157.193 38.8592 157.235C38.7977 157.277 38.725 157.299 38.6505 157.299H38.6505Z" fill="white"/>
<path d="M267.566 245.361C267.601 245.388 267.638 245.412 267.674 245.438H297.712C298.3 243.057 298.508 240.673 297.629 238.603C296.376 235.653 292.669 233.812 289.722 235.079C289.023 235.387 288.415 235.867 287.954 236.475C286.802 234.416 284.736 232.864 282.351 232.866C279.364 232.868 276.879 235.308 276.069 238.126C274.763 235.926 272.185 234.388 269.664 235.049C265.449 236.156 264.118 242.699 267.566 245.361Z" fill="#47AFFF"/>
<path d="M9.50933 246.019C9.57986 246.074 9.65436 246.123 9.72579 246.176H70.3644C71.5526 241.369 71.9721 236.557 70.1973 232.378C67.6685 226.422 60.1848 222.705 54.235 225.263C52.8253 225.885 51.5973 226.855 50.6666 228.082C48.3415 223.926 44.1706 220.792 39.3564 220.796C33.3249 220.8 28.31 225.725 26.6734 231.415C24.0382 226.973 18.8328 223.868 13.7449 225.204C5.23532 227.437 2.54741 240.647 9.50933 246.019Z" fill="#00286B"/>
<path d="M313.999 245.102L0 245.695L0.00139799 246.433L314 245.839L313.999 245.102Z" fill="#3F3D56"/>
<path d="M105.957 230.088C106.032 229.796 106.042 229.492 105.986 229.196C105.93 228.9 105.81 228.62 105.635 228.375C105.459 228.131 105.232 227.928 104.969 227.78C104.706 227.633 104.414 227.545 104.113 227.522L92.3812 212.876L89.4784 215.577L101.872 229.568C101.867 230.075 102.049 230.566 102.383 230.948C102.717 231.33 103.18 231.576 103.683 231.64C104.187 231.704 104.696 231.581 105.115 231.295C105.534 231.009 105.834 230.579 105.957 230.088V230.088Z" fill="#FFB8B8"/>
<path d="M94.6319 215.202L90.9242 218.038C90.8187 218.118 90.6971 218.175 90.5675 218.205C90.438 218.234 90.3036 218.236 90.1735 218.208C90.0434 218.181 89.9207 218.127 89.8137 218.048C89.7067 217.969 89.618 217.869 89.5535 217.752L87.295 213.687C86.8848 213.146 86.7064 212.464 86.7987 211.792C86.891 211.119 87.2466 210.511 87.7875 210.099C88.3284 209.688 89.0104 209.508 89.6841 209.598C90.3579 209.688 90.9683 210.042 91.3816 210.581L94.7135 213.806C94.8089 213.899 94.8832 214.011 94.9314 214.134C94.9796 214.258 95.0005 214.391 94.9928 214.523C94.985 214.655 94.9488 214.785 94.8865 214.902C94.8242 215.019 94.7374 215.122 94.6319 215.202H94.6319Z" fill="#3F3D56"/>
<path d="M88.4053 206.36C91.0092 206.36 93.12 204.252 93.12 201.652C93.12 199.052 91.0092 196.944 88.4053 196.944C85.8014 196.944 83.6905 199.052 83.6905 201.652C83.6905 204.252 85.8014 206.36 88.4053 206.36Z" fill="#FFB8B8"/>
<path d="M98.4694 262.722H100.823L100.599 258.324H97.1255L98.4694 262.722Z" fill="#FFB8B8"/>
<path d="M97.8692 261.955L102.504 261.955H102.504C102.892 261.955 103.276 262.031 103.634 262.179C103.993 262.327 104.318 262.544 104.593 262.818C104.867 263.092 105.084 263.417 105.233 263.775C105.381 264.133 105.458 264.517 105.458 264.904V265L97.8693 265L97.8692 261.955Z" fill="#2F2E41"/>
<path d="M73.3777 259.395L75.38 260.63L77.5042 256.77L75.0815 255.257L73.3777 259.395Z" fill="#FFB8B8"/>
<path d="M73.2707 258.427L77.2138 260.859L77.214 260.859C77.544 261.063 77.8306 261.329 78.0574 261.643C78.2843 261.958 78.447 262.313 78.5362 262.69C78.6254 263.067 78.6393 263.458 78.5773 263.84C78.5152 264.223 78.3783 264.589 78.1745 264.918L78.124 265L71.6681 261.018L73.2707 258.427Z" fill="#2F2E41"/>
<path d="M98.2994 261.432C98.1244 261.432 97.9536 261.379 97.8097 261.28C97.6658 261.18 97.5555 261.04 97.4936 260.876L88.9808 240.552C88.9625 240.503 88.9308 240.459 88.8893 240.426C88.8477 240.393 88.7979 240.373 88.7453 240.366C88.6927 240.36 88.6394 240.368 88.5912 240.39C88.5429 240.412 88.5017 240.447 88.472 240.491L76.7771 258.887C76.6627 259.058 76.4905 259.183 76.2919 259.238C76.0932 259.293 75.8813 259.276 75.6948 259.188L74.0945 258.442C73.8896 258.346 73.7306 258.173 73.6515 257.961C73.5725 257.749 73.5797 257.514 73.6717 257.307L83.2529 235.981C83.0438 235.472 81.0031 230.254 84.1384 227.675L84.1604 227.662L92.6622 223.875L92.8766 230.387L101.351 259.747C101.383 259.858 101.392 259.973 101.378 260.087C101.365 260.202 101.329 260.312 101.272 260.412C101.215 260.512 101.139 260.6 101.047 260.67C100.956 260.74 100.852 260.791 100.74 260.82L98.5207 261.404C98.4485 261.423 98.3741 261.432 98.2994 261.432Z" fill="#2F2E41"/>
<path d="M92.7908 214.349C92.4671 213.051 92.0082 211.743 91.3932 211.14C91.1671 210.919 90.9546 210.686 90.7569 210.44C90.3433 209.92 89.8229 209.494 89.2307 209.191C89.4474 209.071 89.5744 208.927 89.5744 208.772C89.5744 208.349 88.629 208.006 87.4628 208.006C86.2966 208.006 85.3512 208.349 85.3512 208.772C85.3541 208.822 85.3666 208.87 85.3882 208.914C85.4097 208.958 85.4398 208.998 85.4767 209.031C84.7152 209.341 84.0535 209.853 83.5636 210.513C83.0738 211.173 82.7746 211.954 82.6987 212.772C82.426 215.688 82.3463 219.416 83.3021 221.775C84.1038 223.725 84.1675 225.9 83.4815 227.893C83.435 228.032 83.4293 228.181 83.4651 228.323C83.5009 228.465 83.5767 228.594 83.6836 228.694C83.7904 228.794 83.9238 228.862 84.0679 228.889C84.212 228.916 84.3608 228.901 84.4967 228.846L92.9328 225.451C93.0748 225.394 93.1965 225.296 93.2821 225.169C93.3678 225.042 93.4136 224.893 93.4136 224.74V219.584C93.4204 217.82 93.2112 216.062 92.7908 214.349Z" fill="#3F3D56"/>
<path d="M76.6497 235.584C76.9434 235.516 77.2185 235.384 77.4558 235.198C77.693 235.013 77.8866 234.777 78.0228 234.509C78.159 234.24 78.2347 233.945 78.2443 233.644C78.254 233.343 78.1975 233.044 78.0788 232.767L84.6793 215.386L81.3321 214.523L75.2269 231.725C74.7746 231.955 74.4225 232.343 74.2373 232.815C74.0521 233.287 74.0466 233.81 74.222 234.285C74.3974 234.761 74.7414 235.156 75.1888 235.395C75.6363 235.635 76.1561 235.702 76.6497 235.584L76.6497 235.584Z" fill="#FFB8B8"/>
<path d="M84.6518 218.684L80.4223 216.707C80.3019 216.65 80.1952 216.569 80.1092 216.468C80.0232 216.367 79.9601 216.248 79.9242 216.12C79.8882 215.993 79.8802 215.859 79.9008 215.728C79.9213 215.597 79.9699 215.471 80.0433 215.361L82.6138 211.484C82.906 210.872 83.4293 210.4 84.0691 210.172C84.7089 209.945 85.413 209.979 86.0273 210.268C86.6417 210.558 87.1162 211.078 87.347 211.716C87.5778 212.354 87.5461 213.057 87.2588 213.672L85.9297 218.112C85.8916 218.239 85.8265 218.357 85.7389 218.456C85.6512 218.556 85.5431 218.636 85.4218 218.69C85.3006 218.744 85.169 218.772 85.0361 218.771C84.9033 218.77 84.7722 218.74 84.6518 218.684Z" fill="#3F3D56"/>
<path d="M92.7359 200.493C92.9486 200.518 93.164 200.48 93.3544 200.382C93.7022 200.154 93.668 199.638 93.5503 199.24C93.257 198.286 92.7278 197.42 92.0114 196.724C91.2951 196.028 90.4147 195.524 89.4515 195.257C88.7802 195.079 87.9309 195.086 87.547 195.663C86.582 195.022 85.4186 194.746 84.2678 194.887C83.117 195.029 82.055 195.577 81.2743 196.433C80.5113 197.327 80.0027 198.409 79.8016 199.566C79.3987 201.537 77.6734 205.603 78.6291 207.373C79.2651 208.552 82.192 207.634 83.4301 208.147C84.0467 208.415 84.72 208.527 85.3902 208.473C86.0605 208.419 86.7071 208.2 87.2727 207.837C87.8262 207.456 88.2423 206.907 88.4594 206.271C88.6766 205.635 88.6833 204.947 88.4786 204.307C88.2619 203.837 88.012 203.383 87.7308 202.948C87.4485 202.508 87.3333 201.981 87.4061 201.464C87.5794 200.676 91.3007 200.464 92.7359 200.493Z" fill="#2F2E41"/>
</g>
<defs>
<clipPath id="clip0">
<rect width="314" height="265" fill="white"/>
</clipPath>
</defs>
</svg>
