<svg width="296" height="248" viewBox="0 0 296 248" fill="none" xmlns="http://www.w3.org/2000/svg">
<g clip-path="url(#clip0)">
<path d="M73.0613 226.293L73.6633 239.259L73.6633 239.26C73.7649 241.451 73.0103 243.595 71.5656 245.218C70.1209 246.841 68.1043 247.811 65.9595 247.915L65.6967 247.928L64.711 226.698L73.0613 226.293Z" fill="#2F2E41"/>
<path d="M253.486 204.38C247.442 216.432 239.776 228.088 230.076 238.637C229.86 238.875 229.643 239.107 229.423 239.344L206.441 228.227C206.582 227.988 206.736 227.72 206.902 227.427C216.774 210.169 276.367 104.889 274.484 81.0449C274.703 83.0115 281.767 148.048 253.486 204.38Z" fill="#E6E6E6"/>
<path d="M234.51 240.782C234.188 240.969 233.858 241.151 233.526 241.328L216.286 232.989C216.527 232.814 216.807 232.607 217.13 232.375C222.412 228.5 238.118 216.874 253.486 204.38C270.002 190.953 286.13 176.527 288.525 169.64C288.039 171.219 272.922 219.22 234.51 240.782Z" fill="#E6E6E6"/>
<path d="M28.6787 247.41C43.3732 247.41 55.2854 235.238 55.2854 220.224C55.2854 205.209 43.3732 193.038 28.6787 193.038C13.9842 193.038 2.07193 205.209 2.07193 220.224C2.07193 235.238 13.9842 247.41 28.6787 247.41Z" fill="#343F55"/>
<path d="M39.3364 208.815H18.0209C17.079 208.817 16.176 209.199 15.51 209.88C14.844 210.56 14.4694 211.483 14.4683 212.445V228.002C14.4693 228.965 14.844 229.887 15.51 230.568C16.176 231.248 17.079 231.631 18.0209 231.632H39.3365C40.2784 231.631 41.1814 231.248 41.8474 230.568C42.5134 229.887 42.888 228.965 42.8891 228.002V212.445C42.888 211.483 42.5134 210.56 41.8474 209.88C41.1813 209.199 40.2783 208.817 39.3364 208.815ZM39.3364 210.89C39.4637 210.89 39.5904 210.907 39.7135 210.94L28.6811 219.932L17.7133 210.922C17.8145 210.9 17.9175 210.89 18.0209 210.89H39.3364ZM39.3364 229.558H18.0209C17.6172 229.558 17.2302 229.393 16.9448 229.102C16.6594 228.81 16.4988 228.415 16.4983 228.002V212.585L28.0427 222.069C28.2225 222.217 28.4461 222.298 28.6767 222.298C28.9074 222.299 29.1313 222.219 29.3117 222.072L40.859 212.66V228.002C40.8586 228.415 40.698 228.81 40.4126 229.102C40.1271 229.393 39.7401 229.558 39.3364 229.558Z" fill="white"/>
<path d="M131.36 180.974L137.314 181.024C137.916 181.029 138.512 180.9 139.061 180.646C139.609 180.391 140.097 180.017 140.489 179.55C140.882 179.083 141.17 178.535 141.334 177.942C141.497 177.35 141.533 176.728 141.437 176.121C141.334 175.467 141.082 174.846 140.702 174.31C140.322 173.773 139.824 173.335 139.247 173.032C138.671 172.728 138.033 172.566 137.385 172.56C136.737 172.554 136.096 172.704 135.515 172.997L129.901 175.828L110.698 180.203L102.472 171.609L97.7463 179.562L108.847 188.325L131.36 180.974Z" fill="#FFB8B8"/>
<path d="M130.244 243.821L123.23 245.199C118.439 229.768 113.249 215.155 113.249 203.853C106.469 211.563 98.0609 215.974 88.1602 217.359L89.2393 200.269L97.3324 195.859L109.719 190.018C110.803 189.506 111.973 189.211 113.166 189.146C115.485 189.022 117.767 189.778 119.573 191.269C121.379 192.761 122.581 194.882 122.948 197.225L130.244 243.821Z" fill="#2F2E41"/>
<path d="M96.658 215.292L93.8625 217.463C92.6604 218.396 91.2403 218.992 89.7431 219.192C88.246 219.391 86.7238 219.187 85.3277 218.6C77.3206 212.467 71.632 214.276 66.4763 223.533C60.2922 216.401 58.7665 206.101 64.2856 195.446L94.9045 196.135L101.109 194.205L96.658 215.292Z" fill="#2F2E41"/>
<path d="M86.4608 247.228C84.7063 247.78 82.8178 247.683 81.1261 246.955C79.4345 246.227 78.0476 244.913 77.2084 243.245C74.4567 240.769 72.135 237.223 70.1212 232.912C68.6764 229.749 67.4357 226.493 66.4072 223.164C65.0138 218.767 67.3437 213.963 71.6802 212.647C71.8092 212.608 71.9397 212.571 72.0718 212.537C77.8609 211.018 83.8058 214.43 85.7847 220.192L91.5387 236.948C91.8787 237.938 92.0244 238.987 91.9678 240.034C91.9111 241.082 91.653 242.108 91.2083 243.053C90.7637 243.999 90.1411 244.845 89.3761 245.545C88.6112 246.245 87.7188 246.784 86.7501 247.131C86.6543 247.165 86.5579 247.198 86.4608 247.228Z" fill="#2F2E41"/>
<path opacity="0.2" d="M69.1414 231.004C69.1414 231.004 75.8857 238.722 77.2345 243.132L69.1414 231.004Z" fill="black"/>
<path d="M42.9845 194.579L40.7273 200.208C40.4989 200.778 40.3949 201.391 40.4224 202.006C40.45 202.621 40.6084 203.223 40.8868 203.768C41.1652 204.314 41.5567 204.792 42.0342 205.167C42.5116 205.542 43.0634 205.807 43.6511 205.942C44.2836 206.087 44.9407 206.079 45.5695 205.917C46.1983 205.756 46.7812 205.446 47.2713 205.012C47.7615 204.579 48.1451 204.033 48.3914 203.421C48.6377 202.808 48.7398 202.144 48.6894 201.484L48.2031 195.107L51.3612 175.265L62.2263 170.654L56.7561 163.217L44.6691 170.492L42.9845 194.579Z" fill="#FFB8B8"/>
<path d="M96.9278 195.445C89.1766 208.749 73.7244 213.9 60.4897 203.483C62.8178 195.667 70.3344 174.065 65.4785 173.238C55.1684 177.656 55.1534 167.284 53.2249 162.093L76.695 153.272L89.3742 156.855L91.9733 157.798C93.6648 158.411 95.1319 159.539 96.1773 161.029C97.2227 162.52 97.7963 164.302 97.8209 166.136C92.4948 173.998 88.552 182.385 96.9278 195.445Z" fill="#343F55"/>
<path d="M99.8953 184.695L90.5882 176.84L93.6906 158.509L106.37 172.291L99.8953 184.695Z" fill="#343F55"/>
<path d="M254.329 58.771H252.998V21.5449C252.998 15.8308 250.777 10.3508 246.822 6.31036C242.868 2.2699 237.505 0 231.913 0H154.724C149.132 0 143.768 2.2699 139.814 6.31036C135.86 10.3508 133.638 15.8308 133.638 21.5449V225.771C133.638 231.485 135.86 236.965 139.814 241.005C143.768 245.046 149.132 247.316 154.724 247.316H231.912C237.504 247.316 242.868 245.046 246.822 241.005C250.776 236.965 252.998 231.485 252.998 225.771V85.2692H254.328L254.329 58.771Z" fill="#3F3D56"/>
<path d="M232.763 5.60469H222.688C223.151 6.76549 223.328 8.02498 223.203 9.27218C223.078 10.5194 222.655 11.716 221.97 12.7566C221.286 13.7972 220.362 14.6498 219.279 15.2394C218.196 15.8289 216.988 16.1372 215.761 16.1372H171.54C170.314 16.1371 169.106 15.8287 168.023 15.2392C166.94 14.6497 166.016 13.7972 165.332 12.7567C164.647 11.7163 164.224 10.5198 164.099 9.27281C163.973 8.02578 164.15 6.76643 164.614 5.60571H155.202C151.025 5.60571 147.02 7.3009 144.067 10.3184C141.113 13.3358 139.454 17.4284 139.454 21.6957V225.621C139.454 229.888 141.113 233.981 144.067 236.998C147.02 240.016 151.025 241.711 155.202 241.711H232.76C236.937 241.711 240.942 240.016 243.895 236.998C246.848 233.981 248.508 229.888 248.508 225.621V225.621V21.6947C248.508 17.4274 246.848 13.3348 243.895 10.3173C240.942 7.29987 236.937 5.60468 232.76 5.60468H232.763L232.763 5.60469Z" fill="white"/>
<path d="M194.116 230.315C198.891 230.315 202.763 226.359 202.763 221.48C202.763 216.6 198.891 212.644 194.116 212.644C189.34 212.644 185.468 216.6 185.468 221.48C185.468 226.359 189.34 230.315 194.116 230.315Z" fill="#E6E6E6"/>
<path d="M159.036 139.769C158.218 139.769 157.553 140.545 157.553 141.498C157.553 142.452 158.218 143.227 159.036 143.227H228.926C229.743 143.227 230.409 142.452 230.409 141.498C230.409 140.545 229.743 139.769 228.926 139.769H159.036Z" fill="#E6E6E6"/>
<path d="M159.036 180.548C158.218 180.548 157.553 181.324 157.553 182.277C157.553 183.231 158.218 184.006 159.036 184.006H228.926C229.743 184.006 230.409 183.231 230.409 182.277C230.409 181.324 229.743 180.548 228.926 180.548H159.036Z" fill="#E6E6E6"/>
<path d="M159.036 150.143C158.218 150.143 157.553 150.919 157.553 151.872C157.553 152.826 158.218 153.601 159.036 153.601H189.11C189.927 153.601 190.592 152.826 190.592 151.872C190.592 150.919 189.927 150.143 189.11 150.143H159.036Z" fill="#E6E6E6"/>
<path d="M159.036 160.032C158.218 160.032 157.553 160.807 157.553 161.761C157.553 162.714 158.218 163.49 159.036 163.49H228.926C229.743 163.49 230.409 162.714 230.409 161.761C230.409 160.807 229.743 160.032 228.926 160.032H159.036Z" fill="#E6E6E6"/>
<path d="M159.036 170.406C158.218 170.406 157.553 171.181 157.553 172.135C157.553 173.088 158.218 173.864 159.036 173.864H189.11C189.927 173.864 190.592 173.088 190.592 172.135C190.592 171.181 189.927 170.406 189.11 170.406H159.036Z" fill="#E6E6E6"/>
<path d="M172.23 61.0418H215.736C216.217 61.0424 216.678 61.2377 217.018 61.585C217.357 61.9322 217.549 62.403 217.549 62.894V109.191C217.549 109.682 217.357 110.153 217.018 110.5C216.678 110.847 216.217 111.042 215.736 111.043H172.23C171.749 111.042 171.288 110.847 170.949 110.5C170.609 110.153 170.418 109.682 170.417 109.191V62.894C170.418 62.403 170.609 61.9322 170.949 61.585C171.288 61.2377 171.749 61.0424 172.23 61.0418Z" fill="#343F55"/>
<path d="M206.466 101.496C206.628 101.496 206.788 101.464 206.938 101.401C207.087 101.338 207.223 101.245 207.338 101.129C207.452 101.012 207.543 100.873 207.605 100.721C207.667 100.568 207.699 100.404 207.699 100.239C207.699 100.074 207.667 99.9099 207.606 99.7572C207.544 99.6044 207.453 99.4657 207.339 99.3488C207.224 99.232 207.088 99.1393 206.939 99.0762C206.789 99.013 206.629 98.9806 206.467 98.9808H181.5C181.338 98.9804 181.178 99.0127 181.029 99.0757C180.879 99.1387 180.743 99.2312 180.629 99.348C180.514 99.4647 180.423 99.6034 180.361 99.756C180.299 99.9087 180.267 100.072 180.267 100.238C180.267 100.403 180.299 100.567 180.361 100.719C180.423 100.872 180.513 101.011 180.628 101.128C180.742 101.245 180.878 101.337 181.028 101.4C181.177 101.464 181.337 101.496 181.499 101.496H206.466Z" fill="white"/>
<path d="M206.466 94.0868C206.792 94.0868 207.105 93.9544 207.336 93.7185C207.567 93.4827 207.697 93.1629 207.697 92.8293C207.697 92.4958 207.567 92.176 207.336 91.9402C207.105 91.7043 206.792 91.5718 206.466 91.5718H181.5C181.174 91.5717 180.861 91.704 180.63 91.9397C180.399 92.1754 180.269 92.4952 180.269 92.8287C180.269 93.1622 180.398 93.4822 180.629 93.7181C180.86 93.954 181.173 94.0867 181.499 94.0868H206.466Z" fill="white"/>
<path d="M193.983 70.589C195.515 70.589 197.013 71.0532 198.287 71.923C199.561 72.7927 200.554 74.0289 201.14 75.4753C201.726 76.9216 201.88 78.5132 201.581 80.0486C201.282 81.584 200.544 82.9944 199.461 84.1014C198.377 85.2084 196.997 85.9623 195.494 86.2677C193.992 86.5731 192.434 86.4163 191.018 85.8172C189.603 85.2181 188.393 84.2036 187.542 82.9019C186.691 81.6003 186.236 80.0699 186.236 78.5044C186.239 76.4058 187.056 74.3939 188.508 72.91C189.96 71.4261 191.929 70.5914 193.983 70.589Z" fill="white"/>
<path d="M95.1404 150.872H72.1423C71.6692 150.872 71.2156 150.679 70.8811 150.338C70.5466 149.996 70.3584 149.532 70.3579 149.049V138.92C70.3579 135.321 71.7574 131.868 74.2485 129.323C76.7397 126.778 80.1183 125.348 83.6413 125.348C87.1643 125.348 90.543 126.778 93.0341 129.323C95.5252 131.868 96.9247 135.321 96.9247 138.92V149.049C96.9242 149.532 96.736 149.996 96.4015 150.338C96.067 150.679 95.6135 150.872 95.1404 150.872Z" fill="#2F2E41"/>
<path d="M94.726 145.084C97.3059 140.262 95.5714 134.216 90.8519 131.58C86.1323 128.944 80.215 130.716 77.635 135.538C75.0551 140.36 76.7896 146.407 81.5091 149.043C86.2287 151.679 92.146 149.906 94.726 145.084Z" fill="#FFB6B6"/>
<path d="M100.067 139.933H86.0045L85.8602 137.87L85.1392 139.933H82.9738L82.688 135.844L81.259 139.933H77.0691V139.73C77.0722 136.884 78.1803 134.155 80.1502 132.142C82.1201 130.129 84.7909 128.997 87.5768 128.994H89.5595C92.3453 128.997 95.0162 130.129 96.9861 132.142C98.9561 134.155 100.064 136.884 100.067 139.73V139.933Z" fill="#2F2E41"/>
<path d="M85.8894 152.763C85.7835 152.763 85.6778 152.753 85.5736 152.734L75.2762 150.878V133.489H86.6116L86.331 133.823C82.4264 138.476 85.3681 146.021 87.4691 150.104C87.6239 150.403 87.693 150.741 87.6683 151.078C87.6435 151.416 87.5261 151.739 87.3294 152.011C87.1646 152.244 86.9482 152.433 86.6979 152.564C86.4476 152.695 86.1705 152.763 85.8894 152.763Z" fill="#2F2E41"/>
<path d="M120.174 238.617L132.878 238.616H132.879C135.026 238.616 137.085 239.488 138.604 241.039C140.122 242.591 140.975 244.695 140.975 246.889V247.158L120.174 247.158L120.174 238.617Z" fill="#2F2E41"/>
<path d="M295.667 248H0.332584C0.244377 248 0.159783 247.964 0.0974114 247.901C0.0350398 247.837 0 247.75 0 247.66C0 247.57 0.0350398 247.484 0.0974114 247.42C0.159783 247.356 0.244377 247.32 0.332584 247.32H295.667C295.756 247.32 295.84 247.356 295.903 247.42C295.965 247.484 296 247.57 296 247.66C296 247.75 295.965 247.837 295.903 247.901C295.84 247.964 295.756 248 295.667 248Z" fill="#CACACA"/>
</g>
<defs>
<clipPath id="clip0">
<rect width="296" height="248" fill="white"/>
</clipPath>
</defs>
</svg>
