<svg width="334" height="227" viewBox="0 0 334 227" fill="none" xmlns="http://www.w3.org/2000/svg">
<path d="M14.877 87.1137C15.1964 106.285 22.5658 108.361 31.6156 106.361C41.9541 104.077 50.4395 96.9174 54.6217 87.4447L57.5059 80.9118C59.4234 76.5687 59.4879 71.6628 57.6854 67.2734C55.8828 62.884 52.3607 59.3706 47.894 57.5062H47.894C45.6823 56.583 43.3053 56.0925 40.8986 56.0626C38.492 56.0326 36.1028 56.4639 33.8675 57.3317C31.6323 58.1996 29.5947 59.487 27.8712 61.1205C26.1477 62.7541 24.7719 64.7017 23.8225 66.8522C14.5414 70.3971 12.7084 77.7362 14.877 87.1137Z" fill="#2F2E41"/>
<path d="M73.0688 48.5278L75.8465 43.9575C76.1857 43.3994 76.3905 42.7738 76.4456 42.1278C76.5006 41.4818 76.4045 40.832 76.1645 40.2272C75.9244 39.6224 75.5466 39.0784 75.0594 38.6358C74.5722 38.1933 73.9882 37.8638 73.3514 37.672C72.6792 37.4696 71.967 37.4263 71.2741 37.5458C70.5812 37.6653 69.9277 37.9441 69.3681 38.3589C68.8085 38.7738 68.3589 39.3127 68.0569 39.9307C67.755 40.5487 67.6093 41.228 67.632 41.9118L67.7952 46.8245L54.7413 81.609L61.8598 83.054L73.0688 48.5278Z" fill="#9F616A"/>
<path d="M4.39304 134.277L0.974055 138.416C0.556551 138.922 0.262174 139.512 0.113011 140.144C-0.036151 140.776 -0.0362267 141.433 0.112789 142.064C0.261805 142.696 0.556044 143.287 0.973431 143.793C1.39082 144.298 1.92052 144.705 2.52279 144.983C3.15848 145.277 3.85709 145.418 4.56042 145.396C5.26374 145.374 5.95141 145.188 6.56609 144.855C7.18078 144.522 7.70469 144.051 8.09416 143.481C8.48362 142.911 8.72737 142.259 8.80508 141.579L9.36333 136.694L27.3807 104.072L20.5465 101.656L4.39304 134.277Z" fill="#9F616A"/>
<path d="M25.5168 168.711L26.02 174.589L26.1381 175.96L59.6006 172.831C60.754 172.705 61.8605 172.315 62.8302 171.695C63.7998 171.074 64.6051 170.24 65.1808 169.26C65.7565 168.28 66.0863 167.182 66.1433 166.055C66.2004 164.927 65.983 163.803 65.5091 162.773L54.7173 140.246L50.9896 132.465L34.8361 128.841C21.5157 138.754 33.5003 149.694 48.579 160.761C49.1692 161.196 49.7657 161.631 50.3683 162.066L25.5168 168.711Z" fill="#2F2E41"/>
<path d="M14.2414 189.065C14.6491 189.122 15.065 189.075 15.4491 188.931C15.8332 188.786 16.1726 188.548 16.4349 188.24L27.3807 175.356L26.7594 169.315L23.0272 167.138C22.7219 166.96 22.3804 166.848 22.0264 166.811C21.6724 166.775 21.3144 166.813 20.9772 166.924C20.6401 167.036 20.3319 167.217 20.0741 167.456C19.8163 167.694 19.615 167.985 19.4843 168.307L12.3451 185.892C12.2118 186.221 12.1567 186.574 12.184 186.926C12.2113 187.279 12.3203 187.62 12.5028 187.925C12.6853 188.231 12.9365 188.492 13.2376 188.689C13.5387 188.886 13.8819 189.015 14.2414 189.065Z" fill="#2F2E41"/>
<path opacity="0.2" d="M23.6529 167.503L24.2742 174.752L26.02 174.589L57.7367 171.623C58.8902 171.496 59.9967 171.107 60.9663 170.487C61.9359 169.866 62.7413 169.032 63.317 168.052C63.8927 167.072 64.2224 165.974 64.2795 164.847C64.3365 163.719 64.1192 162.595 63.6452 161.565L54.7173 142.131V140.246L50.9896 132.465L34.8361 128.841C21.5157 138.754 33.5003 149.694 48.579 160.761L48.5044 160.858L23.6529 167.503Z" fill="black"/>
<path d="M11.135 186.649C11.5427 186.705 11.9585 186.659 12.3426 186.515C12.7267 186.37 13.0662 186.132 13.3285 185.823L24.2742 172.94L23.6529 166.899L19.9208 164.721C19.6155 164.543 19.274 164.432 18.92 164.395C18.5659 164.358 18.2079 164.397 17.8708 164.508C17.5336 164.619 17.2255 164.801 16.9676 165.039C16.7098 165.278 16.5086 165.569 16.3779 165.891L9.23872 183.476C9.10538 183.805 9.0503 184.158 9.0776 184.51C9.1049 184.862 9.21388 185.204 9.39635 185.509C9.57883 185.814 9.83005 186.075 10.1312 186.273C10.4323 186.47 10.7755 186.599 11.135 186.649Z" fill="#2F2E41"/>
<path d="M22.4104 166.295L23.0316 173.544L56.4942 170.414C57.6475 170.287 58.754 169.898 59.7236 169.278C60.6933 168.658 61.4988 167.824 62.0747 166.844C62.6506 165.864 62.9807 164.766 63.0381 163.639C63.0956 162.512 62.8787 161.387 62.4052 160.357L53.4747 140.922V130.049L31.7297 126.424C17.8851 136.726 31.3744 148.139 47.2618 159.649L22.4104 166.295Z" fill="#2F2E41"/>
<path d="M43.5341 81.1167C48.681 81.1167 52.8534 77.0598 52.8534 72.0553C52.8534 67.0507 48.681 62.9938 43.5341 62.9938C38.3872 62.9938 34.2148 67.0507 34.2148 72.0553C34.2148 77.0598 38.3872 81.1167 43.5341 81.1167Z" fill="#9F616A"/>
<path d="M31.1084 87.1577L44.1554 95.615L55.3386 93.1986L49.1257 87.1577V78.0962L39.1851 77.4921C38.9764 81.1106 36.8439 84.4219 31.1084 87.1577Z" fill="#9F616A"/>
<path d="M29.2445 129.445L53.4747 132.465L59.0663 107.093C61.664 100.358 60.1736 94.4078 55.3642 89.0944C55.1803 88.2002 54.6903 87.3929 53.9741 86.8042C53.2579 86.2154 52.3577 85.8799 51.4203 85.8523L49.1257 85.9494C49.3853 93.9613 43.3145 92.0316 34.2148 85.3453L33.116 85.6659C31.6956 86.0802 30.4761 86.978 29.6807 88.195C28.8853 89.412 28.5671 90.8668 28.7844 92.2931L29.7863 98.869C30.2112 101.476 30.8712 104.042 31.7586 106.536C34.2428 113.755 33.3551 121.397 29.2445 129.445Z" fill="#343F55"/>
<path d="M18.0614 102.26L29.2445 105.885L34.2148 88.3658L32.531 87.6216C31.135 87.0046 29.5498 86.9272 28.0972 87.4049C26.6445 87.8827 25.4333 88.8799 24.7091 90.1943L18.0614 102.26Z" fill="#343F55"/>
<path d="M50.9896 85.9495L57.2026 92.5944L64.6578 81.1166L55.3384 76.2839L50.9896 85.9495Z" fill="#343F55"/>
<path d="M32.6616 69.3368C38.5178 71.4839 44.7677 71.2613 51.3002 69.3368V62.0876H32.6616V69.3368Z" fill="#2F2E41"/>
<path d="M323.316 193.776L316.891 196.379L274.059 139.635L243.006 197.42L234.975 195.859L258.533 116.208H285.838L323.316 193.776Z" fill="#2F2E41"/>
<path d="M331.935 207.013C331.579 207.108 331.207 207.133 330.841 207.087C330.475 207.041 330.122 206.925 329.802 206.746L316.252 199.161C315.887 198.956 315.574 198.672 315.34 198.331C315.105 197.99 314.954 197.601 314.899 197.194C314.843 196.788 314.885 196.374 315.02 195.985C315.156 195.597 315.382 195.244 315.68 194.954L316.891 193.776L323.316 193.255L333.138 202.423C333.495 202.757 333.755 203.177 333.891 203.64C334.027 204.103 334.034 204.592 333.912 205.059C333.79 205.526 333.542 205.952 333.195 206.296C332.848 206.639 332.413 206.887 331.935 207.013Z" fill="#2F2E41"/>
<path d="M226.891 209.096C227.247 209.19 227.619 209.215 227.985 209.169C228.351 209.124 228.704 209.008 229.024 208.829L242.574 201.243C242.939 201.038 243.252 200.755 243.487 200.414C243.721 200.073 243.872 199.684 243.928 199.277C243.983 198.87 243.941 198.456 243.806 198.068C243.67 197.679 243.444 197.326 243.146 197.036L241.935 195.858L235.51 195.338L225.689 204.506C225.331 204.839 225.071 205.259 224.935 205.722C224.799 206.185 224.792 206.675 224.914 207.141C225.037 207.608 225.284 208.035 225.631 208.378C225.978 208.721 226.413 208.969 226.891 209.096Z" fill="#2F2E41"/>
<path d="M240.329 33.435L237.652 34.9968L232.104 26.2314C231.764 25.6931 231.561 25.083 231.514 24.4525C231.466 23.8221 231.576 23.1898 231.832 22.6091C232.089 22.0283 232.485 21.516 232.988 21.1155C233.491 20.715 234.086 20.4379 234.722 20.3077C235.288 20.1919 235.872 20.1951 236.436 20.317C237.001 20.4388 237.532 20.6766 237.994 21.0144C238.456 21.3521 238.838 21.782 239.115 22.2752C239.392 22.7685 239.558 23.3136 239.6 23.8741L240.329 33.435Z" fill="#FFB9B9"/>
<path d="M314.485 101.678L315.596 98.8411L325.53 102.394C326.14 102.613 326.687 102.97 327.126 103.437C327.564 103.904 327.88 104.467 328.048 105.078C328.215 105.688 328.229 106.329 328.089 106.946C327.948 107.564 327.657 108.139 327.24 108.624C326.869 109.055 326.408 109.404 325.887 109.647C325.366 109.891 324.797 110.023 324.219 110.035C323.642 110.048 323.068 109.94 322.536 109.719C322.005 109.498 321.528 109.169 321.138 108.754L314.485 101.678Z" fill="#FFB9B9"/>
<path d="M272.453 64.6703C276.888 64.6703 280.484 61.1742 280.484 56.8615C280.484 52.5488 276.888 49.0527 272.453 49.0527C268.017 49.0527 264.422 52.5488 264.422 56.8615C264.422 61.1742 268.017 64.6703 272.453 64.6703Z" fill="#FFB9B9"/>
<path d="M279.413 73.5202H268.17V61.5468L277.807 60.5056L279.413 73.5202Z" fill="#FFB9B9"/>
<path d="M287.444 119.332H256.926C258.002 102.775 258.854 86.7754 256.926 77.685L258.701 69.403C258.947 68.2555 259.628 67.24 260.608 66.5584C261.589 65.8768 262.798 65.5791 263.994 65.7245L268.17 66.232C270.997 71.0658 274.415 71.0192 278.342 66.7526H283.372C284.042 66.7526 284.706 66.8827 285.324 67.1351C285.943 67.3876 286.503 67.7575 286.972 68.2231C287.442 68.6886 287.811 69.2406 288.058 69.8466C288.306 70.4526 288.426 71.1005 288.413 71.7524C289.723 77.5856 290.159 83.5724 289.707 89.5269L287.444 119.332Z" fill="#3F3D56"/>
<path d="M236.045 33.4349L240.329 31.3527L263.351 68.3145L256.926 77.6849L236.045 33.4349Z" fill="#3F3D56"/>
<path d="M314.546 103.159L318.207 100.157L298.757 73.6565C296.854 71.0639 294.231 69.0522 291.194 67.8569C288.158 66.6616 284.834 66.3322 281.612 66.9074L280.999 67.017L288.353 79.5313L298.04 86.6624L314.546 103.159Z" fill="#3F3D56"/>
<path d="M281.741 52.2518C281.741 52.2518 283.241 49.0417 279.34 47.5825C279.34 47.5825 276.038 42.3295 269.435 45.8315C269.435 45.8315 264.933 47.5825 264.933 52.2518C264.933 56.9212 263.432 57.7967 263.432 57.7967C263.432 57.7967 265.667 55.5674 266.267 53.8164C266.868 52.0654 271.536 51.6682 273.337 53.4191C275.138 55.1701 279.64 54.8783 279.64 54.8783L279.34 61.2986C279.34 61.2986 280.84 57.5048 281.441 57.5048C282.041 57.5048 282.641 52.2518 281.741 52.2518Z" fill="#2F2E41"/>
<path d="M280.999 227C308.138 227 330.139 225.886 330.139 224.512C330.139 223.137 308.138 222.023 280.999 222.023C253.86 222.023 231.859 223.137 231.859 224.512C231.859 225.886 253.86 227 280.999 227Z" fill="#E6E6E6"/>
<path d="M35.6512 225.827C49.9962 225.827 61.6251 225.238 61.6251 224.511C61.6251 223.785 49.9962 223.196 35.6512 223.196C21.3062 223.196 9.67733 223.785 9.67733 224.511C9.67733 225.238 21.3062 225.827 35.6512 225.827Z" fill="#E6E6E6"/>
<path d="M234.1 43.7834L76.1968 57.5437C75.4215 57.6104 74.6506 57.3753 74.0533 56.8901C73.456 56.4048 73.081 55.709 73.0106 54.9553L69.5001 16.8699C69.4316 16.1161 69.6733 15.3665 70.1724 14.7857C70.6714 14.2049 71.387 13.8403 72.1622 13.7719L230.065 0.0115465C230.841 -0.0551254 231.612 0.179945 232.209 0.665191C232.806 1.15044 233.181 1.84624 233.252 2.59996L236.762 40.6853C236.831 41.4392 236.589 42.1888 236.09 42.7696C235.591 43.3503 234.875 43.7149 234.1 43.7834Z" fill="#343F55"/>
<path d="M94.6484 45.8633C101.458 45.8633 106.979 40.4955 106.979 33.8739C106.979 27.2523 101.458 21.8845 94.6484 21.8845C87.8384 21.8845 82.3178 27.2523 82.3178 33.8739C82.3178 40.4955 87.8384 45.8633 94.6484 45.8633Z" fill="white"/>
<path d="M122.279 23.4411C121.737 23.4893 121.236 23.7447 120.888 24.1512C120.539 24.5578 120.37 25.0822 120.419 25.6094C120.468 26.1366 120.729 26.6235 121.147 26.9632C121.564 27.303 122.103 27.4678 122.646 27.4216L219.142 19.0125C219.411 18.9894 219.673 18.915 219.912 18.7935C220.152 18.672 220.364 18.5057 220.537 18.3043C220.711 18.1028 220.842 17.8701 220.922 17.6195C221.003 17.3689 221.032 17.1052 221.008 16.8436C220.984 16.582 220.907 16.3276 220.782 16.0949C220.656 15.8622 220.485 15.6559 220.278 15.4876C220.07 15.3193 219.831 15.1925 219.573 15.1143C219.315 15.0361 219.044 15.0082 218.775 15.032L122.279 23.4411Z" fill="white"/>
<path d="M123.379 35.3826C123.11 35.4056 122.848 35.4799 122.609 35.6014C122.369 35.7229 122.156 35.8891 121.983 36.0906C121.81 36.292 121.679 36.5248 121.598 36.7755C121.517 37.0262 121.488 37.2899 121.512 37.5516C121.536 37.8133 121.613 38.0678 121.738 38.3005C121.864 38.5333 122.035 38.7397 122.243 38.9079C122.45 39.0762 122.69 39.203 122.948 39.2811C123.206 39.3592 123.477 39.3871 123.746 39.3632L220.242 30.9541C220.512 30.931 220.773 30.8566 221.013 30.7351C221.252 30.6135 221.465 30.4473 221.638 30.2459C221.811 30.0444 221.942 29.8117 222.023 29.5611C222.104 29.3105 222.133 29.0468 222.109 28.7852C222.085 28.5236 222.008 28.2692 221.882 28.0365C221.757 27.8038 221.586 27.5975 221.378 27.4292C221.171 27.2609 220.932 27.1341 220.674 27.0559C220.416 26.9777 220.145 26.9497 219.876 26.9736L123.379 35.3826Z" fill="white"/>
</svg>
